<?xml version="1.0" encoding="UTF-8"?>
<svg id="Layer_1" data-name="Layer 1" xmlns="http://www.w3.org/2000/svg" viewBox="0 0 1080 1080">
  <defs>
    <style>
      .cls-1 {
        stroke-width: 0px;
      }

      .cls-2 {
        letter-spacing: -.01em;
      }

      .cls-3 {
        letter-spacing: .2em;
      }

      .cls-4 {
        font-family: MicrosoftJhengHeiUIBold, 'Microsoft JhengHei UI';
        font-size: 37.97px;
      }

      .cls-5 {
        fill: #5271ff;
        font-family: FranklinGothic-Heavy, 'Franklin Gothic Heavy';
        font-size: 151.86px;
        font-weight: 800;
      }

      .cls-6 {
        letter-spacing: .18em;
      }
    </style>
  </defs>
  <g>
    <path class="cls-1" d="m719.87,362.19c0,39.2.12,73.81-.09,108.42-.05,7.44,2.79,17.02-10.5,17.1-13.28.08-10.62-9.44-10.67-16.95-.2-33.44-.63-66.89.2-100.32.29-11.7-3.91-16.91-14.79-19.01-15.64-3.01-31.16-6.7-49.86-10.78,0,11.87,0,21.47,0,31.07,0,32.82.08,65.64-.09,98.46-.04,7.75,1.78,17-10.81,17.45-13.59.49-12.54-9.33-12.58-17.85-.2-37.77-.5-75.56.07-113.32.21-13.81-2.22-20.02-18.7-22.05-50.94-6.27-40.44-2.47-41.15,36.4-.6,32.81.06,65.64-.31,98.46-.09,8.02,2.19,18.63-11.85,18.36-14.25-.27-10.88-10.96-10.93-18.87-.27-40.25-.63-80.51.14-120.75.26-13.58-4.86-17.9-17.38-16.16-9.18,1.28-18.44,3.59-27.57,3.2-14-.59-16.21,6.3-16.05,18.21.52,39.01.38,78.03-.03,117.04-.06,5.53-1.57,14.52-4.9,15.9-11.29,4.68-16.62-.52-16.44-13.32.52-37.15.17-74.31.17-111.47,0-6.06,0-12.12,0-21.24-20.19,4.75-38.24,8.13-55.59,13.69-4.14,1.33-8.33,9.85-8.45,15.16-.77,33.42-.32,66.87-.48,100.31-.04,8.43,1.66,18.46-12,18.26-13.63-.2-11.64-10.45-11.7-18.7-.24-33.89-.1-67.79-.1-106.45-22.11,9.64-40.78,16.99-58.52,26.15-3.78,1.96-5.67,10.48-5.82,16.05-.65,22.9.26,45.84-.75,68.71-.21,4.85-5.23,12.41-9.46,13.58-10.25,2.84-11.78-5.17-11.73-13.49.14-22.23.05-44.46.05-72.56-22.76,16.08-43.03,28.6-60.72,44.05-5.03,4.4-3.66,17.38-3.35,26.37.5,14.64-5.34,19.21-20.04,14.59-1.08-5.39-2.23-11.16-4.37-21.81-17.51,25.87-39.91,27.26-68.49,20.88,101.27-110.08,224.01-171.75,368.9-184.89,188.19-17.07,347.85,45.89,481.66,183.82-28.23,8.75-49.76,5.03-68.69-19.01-.95,7.15-.35,10.74-1.88,12.53-3.33,3.89-7.44,8.85-11.8,9.49-2.81.41-9.86-6.44-9.52-9.41,5.43-47.08-36.16-52.11-64.96-75.98,0,25.91.24,46.67-.12,67.43-.14,8.17,2,18.55-11.72,18.66-13.81.11-11.64-10.09-11.73-18.4-.23-21.67.86-43.42-.65-64.98-.49-6.92-5.89-16.24-11.78-19.49-15.42-8.51-32.35-14.27-52.05-22.54Z"/>
    <path class="cls-1" d="m1022.31,555.67c5.34,15.74,2.08,23.76-14.97,23.14-15.46-.56-30.96-.06-46.44-.06-289.19,0-578.38,0-867.57,0-6.81,0-13.64-.35-20.43,0-16.56.85-21-6.67-15.05-23.08h964.46Z"/>
    <path class="cls-1" d="m117.24,534.9c-6.04-17.96-.62-23.94,17.55-23.91,270.06.41,540.13.4,810.19.02,17.73-.03,24.16,5.31,17.84,23.9H117.24Z"/>
  </g>
  <text transform="translate(47.63 699.44)"><tspan class="cls-5"><tspan class="cls-2" x="0" y="0">C</tspan><tspan x="93.73" y="0">ARE BRIDGE</tspan></tspan><tspan class="cls-4"><tspan class="cls-3" x="0" y="45.56" xml:space="preserve">  </tspan><tspan class="cls-6" x="33.79" y="45.56">C</tspan><tspan class="cls-3" x="66.11" y="45.56">ONNECTING CARE, BRIDGING LIVES</tspan></tspan></text>
</svg>