<?xml version="1.0" encoding="UTF-8"?>
<svg id="Layer_1" data-name="Layer 1" xmlns="http://www.w3.org/2000/svg" viewBox="0 0 1080 170.39">
  <defs>
    <style>
      .cls-1, .cls-2 {
        stroke-width: 0px;
      }

      .cls-3 {
        letter-spacing: .19em;
      }

      .cls-4 {
        letter-spacing: .2em;
      }

      .cls-5 {
        letter-spacing: -.01em;
      }

      .cls-6 {
        fill: #231f20;
        font-family: MicrosoftJhengHeiUIBold, 'Microsoft JhengHei UI';
        font-size: 25.91px;
      }

      .cls-2, .cls-7 {
        fill: #5271ff;
      }

      .cls-7 {
        font-family: FranklinGothic-Heavy, 'Franklin Gothic Heavy';
        font-size: 103.66px;
        font-weight: 800;
      }

      .cls-8 {
        letter-spacing: .18em;
      }
    </style>
  </defs>
  <rect class="cls-1" x="21.2" y="21.47" width="358.21" height="123.43" rx="11.11" ry="11.11"/>
  <g>
    <path class="cls-2" d="m263.03,56.62c0,13.76.04,25.91-.03,38.06-.02,2.61.98,5.98-3.69,6-4.66.03-3.73-3.31-3.74-5.95-.07-11.74-.22-23.48.07-35.22.1-4.11-1.37-5.94-5.19-6.67-5.49-1.06-10.94-2.35-17.5-3.79,0,4.17,0,7.54,0,10.91,0,11.52.03,23.04-.03,34.57-.01,2.72.62,5.97-3.79,6.13-4.77.17-4.4-3.28-4.42-6.27-.07-13.26-.18-26.52.03-39.78.07-4.85-.78-7.03-6.56-7.74-17.88-2.2-14.2-.87-14.45,12.78-.21,11.52.02,23.04-.11,34.57-.03,2.81.77,6.54-4.16,6.44-5-.1-3.82-3.85-3.84-6.63-.1-14.13-.22-28.27.05-42.39.09-4.77-1.71-6.28-6.1-5.67-3.22.45-6.47,1.26-9.68,1.12-4.92-.21-5.69,2.21-5.64,6.39.18,13.69.13,27.39-.01,41.09-.02,1.94-.55,5.1-1.72,5.58-3.96,1.64-5.84-.18-5.77-4.68.18-13.04.06-26.09.06-39.13,0-2.13,0-4.25,0-7.46-7.09,1.67-13.42,2.85-19.52,4.81-1.45.47-2.92,3.46-2.97,5.32-.27,11.73-.11,23.48-.17,35.22-.01,2.96.58,6.48-4.21,6.41-4.78-.07-4.09-3.67-4.11-6.56-.09-11.9-.04-23.8-.04-37.37-7.76,3.38-14.32,5.96-20.54,9.18-1.33.69-1.99,3.68-2.04,5.64-.23,8.04.09,16.09-.26,24.12-.07,1.7-1.84,4.36-3.32,4.77-3.6,1-4.14-1.81-4.12-4.73.05-7.8.02-15.61.02-25.47-7.99,5.65-15.1,10.04-21.32,15.46-1.77,1.54-1.28,6.1-1.18,9.26.18,5.14-1.87,6.75-7.03,5.12-.38-1.89-.78-3.92-1.53-7.66-6.15,9.08-14.01,9.57-24.04,7.33,35.55-38.64,78.64-60.29,129.5-64.91,66.07-5.99,122.12,16.11,169.09,64.53-9.91,3.07-17.47,1.77-24.11-6.68-.33,2.51-.12,3.77-.66,4.4-1.17,1.37-2.61,3.11-4.14,3.33-.99.14-3.46-2.26-3.34-3.3,1.91-16.53-12.69-18.29-22.8-26.67,0,9.09.09,16.38-.04,23.67-.05,2.87.7,6.51-4.11,6.55-4.85.04-4.09-3.54-4.12-6.46-.08-7.61.3-15.24-.23-22.81-.17-2.43-2.07-5.7-4.14-6.84-5.41-2.99-11.36-5.01-18.27-7.91Z"/>
    <path class="cls-2" d="m369.2,124.55c1.87,5.53.73,8.34-5.26,8.12-5.43-.2-10.87-.02-16.3-.02-101.52,0-203.05,0-304.57,0-2.39,0-4.79-.12-7.17,0-5.81.3-7.37-2.34-5.28-8.1h338.58Z"/>
    <path class="cls-2" d="m51.47,117.25c-2.12-6.3-.22-8.4,6.16-8.39,94.81.14,189.62.14,284.42,0,6.22,0,8.48,1.86,6.26,8.39H51.47Z"/>
  </g>
  <text transform="translate(396.67 103.78)"><tspan class="cls-7"><tspan class="cls-5" x="0" y="0">C</tspan><tspan x="63.98" y="0">ARE BRIDGE</tspan></tspan><tspan class="cls-6"><tspan class="cls-3" x="0" y="31.1" xml:space="preserve">  </tspan><tspan class="cls-8" x="23.06" y="31.1">C</tspan><tspan class="cls-4" x="45.12" y="31.1">ONNECTING CARE, BRIDGING LIVES</tspan></tspan></text>
</svg>